<?xml version="1.0" encoding="utf-8"?>
<!-- Generator: Adobe Illustrator 24.1.0, SVG Export Plug-In . SVG Version: 6.00 Build 0)  -->
<svg version="1.1" id="Calque_1" xmlns="http://www.w3.org/2000/svg" xmlns:xlink="http://www.w3.org/1999/xlink" x="0px" y="0px"
	 viewBox="0 0 481.8 454.3" style="enable-background:new 0 0 481.8 454.3;" xml:space="preserve">
<style type="text/css">
	.st0{fill-rule:evenodd;clip-rule:evenodd;fill:#FFFFFF;}
	.st1{fill:#005CA9;}
	.st2{fill:#FFFFFF;}
	.st3{fill:#E30613;}
	.st4{fill:#45C2B1;}
</style>
<g>
	<path class="st0" d="M481.7,227c0-125.4-101.3-227-226.2-227C134.9,0,36.4,94.8,29.7,214.2l-11.4,2.2l-9,13v5l20.1-2.6
		C31.9,355,132.2,454.1,255.5,454.1c86.7,0,162.1-49,200-121l3,7.2l1.8,7l2-12l3-18l-1.4-2.1C475.4,288.1,481.7,258.3,481.7,227z"/>
	<g>
		<path class="st1" d="M313.7,82c-17.8,6.3-30.7,23.2-30.7,43.2s12.9,36.9,30.7,43.2V82z"/>
		<path class="st2" d="M313.7,168.4c4.8,1.7,10,2.8,15.4,2.8c5.4,0,10.5-1.1,15.3-2.8V82c-4.8-1.7-9.9-2.8-15.3-2.8
			c-5.4,0-10.5,1.1-15.4,2.8V168.4z"/>
		<path class="st3" d="M344.4,82v86.4c17.8-6.3,30.7-23.2,30.7-43.2S362.2,88.4,344.4,82z"/>
	</g>
	<g>
		<path class="st4" d="M186.7,121.7c8.7-4.6,15.5-12.7,15.5-25.6c0-9.7-3.5-19.3-12.4-24.7c-5.9-4.3-14.3-6.6-25.9-6.6h-36.5v122.1
			h35.8c15,0,22.3-1.2,30.9-7.1c9.4-5.6,14.7-15.8,14.8-27.9C209,146.4,207.8,128.4,186.7,121.7z M146.9,81.9h15.5
			c6.1,0,9.9,0.7,12.9,2.1c4.3,2,8.2,6.9,8.2,14.3c0,6.4-2.1,11.7-8.2,15c-3.5,1.7-7.9,2-12.4,2h-16V81.9z M179.6,167.7
			c-4.1,1.7-9.1,2-13,2h-19.6v-38h18c5.9,0,9.9,0.2,14.7,2.1c6.3,2.6,10.7,8.4,10.7,16.8C190.2,159.9,185.6,165.1,179.6,167.7z"/>
		<rect x="226.4" y="64.7" class="st4" width="19.5" height="122.1"/>
		<path class="st4" d="M481.8,227.2C481.8,101.9,379.9,0,254.7,0C138.4,0,42.6,87.9,29.4,200.6C3.2,210,0.7,238.2,0.5,245.7
			c-0.6,2.9-0.5,4.8-0.5,4.8s10.4-17.4,28.2-9.5c7.2,118.8,105.9,213.3,226.5,213.3c86.5,0,161.8-48.7,200.2-120
			c3.7,7,4.6,13,4.6,13s-3-91-92.9-91s-209.9,83-209.9,83s21.1,44,85.3,44s91.5-41.7,135.2-60.9c39.2-17.2,60-9.1,70.9,2.3
			C412.3,395.4,339.1,444,254.7,444c-54.1,0-103.6-19.9-141.6-52.8c23.5-25.1,48.5-57.8,66.4-106.5C228.3,151.8,219,136.3,219,136.3
			s-3,54.7-44.9,138.5c-7.5,15-16,31-24.4,46.5c1-70.3-50.8-123.7-100.9-123.7c-3.1,0-6,0.2-8.7,0.6C54.3,92.2,145,10.4,254.7,10.4
			c119.6,0,216.8,97.3,216.8,216.8c0,17.9-2.3,35.3-6.5,52c-13.3-42.6-59.5-76.7-136.5-71.6C212,215.3,156.7,339.3,156.7,339.3
			s108-85,197.6-88.7c119.1-5,105.2,96.7,105.2,96.7c7-14.7,10.2-30.3,9.5-45.5C477.2,278.5,481.8,253.4,481.8,227.2z M39.1,248.6
			c5.5,5.2,11.6,12.8,18.1,23.7c35,58.9,61.8,59.3,92.4,49.1c-15.5,28.5-30.6,54.9-38.3,68.1C71.4,354.3,44.6,304.5,39.1,248.6z
			 M149.7,321.3C149.7,321.3,149.7,321.3,149.7,321.3c-1.8-3.1-58.2-99.5-104.6-99.5c-16.1,0-26.4,3.3-33.1,7.7
			c6.9-6,17.7-11.1,34.6-11.1C99.3,218.4,148.1,318,149.7,321.3z"/>
		<path class="st4" d="M329,188.9c35.1,0,63.6-28.5,63.6-63.6c0-35.1-28.5-63.6-63.6-63.6c-35.1,0-63.6,28.5-63.6,63.6
			C265.4,160.3,294,188.9,329,188.9z M329,79.5c25.2,0,45.7,20.5,45.7,45.7c0,25.2-20.5,45.7-45.7,45.7c-25.2,0-45.7-20.5-45.7-45.7
			C283.3,100,303.8,79.5,329,79.5z"/>
	</g>
	<g>
		<path class="st1" d="M158.3,408.2l12.5-19.3l4,1.8l-0.3,14.7l10.7-10.1l4,1.8l-5.9,22.2l-4.8-2.1l3.8-13.1l-10.7,10.1l-1.7-0.7
			l0.3-14.7l-7.1,11.6L158.3,408.2z"/>
		<path class="st1" d="M202.9,420.5l-8.2-2.3l-2.8,3.6l-5.2-1.5l15-19.3l4.6,1.3l2.4,24.3l-5.2-1.5L202.9,420.5z M202.7,416.2
			l-0.6-8.1l-4.8,6.5L202.7,416.2z"/>
		<path class="st1" d="M223.5,406.1c3,0.5,6,1.4,8.3,4.5c1.7,2.2,2.5,5,2,8.5c-0.6,3.5-2.2,5.9-4.3,7.4c-3.6,2.6-7.5,2.3-9.4,2
			l-7.3-1.1l3.5-22.4L223.5,406.1z M218.7,423.8l1.4,0.2c1.1,0.2,3.4,0.4,5.3-0.7c1.4-0.8,2.6-2.6,3-5.1c0.4-2.4-0.3-4.1-1.1-5.1
			c-1.4-1.9-3.6-2.5-5.1-2.8l-1.4-0.2L218.7,423.8z"/>
		<path class="st1" d="M251.1,413.2l-7.6-0.4l-0.2,4.4l7.2,0.4l-0.2,4.4l-7.2-0.4l-0.3,5l7.6,0.4l-0.2,4.4l-12.8-0.7l1.2-22.6
			l12.8,0.7L251.1,413.2z"/>
		<path class="st1" d="M267.8,408.2l1.3,22.6l-5.2,0.3l-1.3-22.6L267.8,408.2z"/>
		<path class="st1" d="M275.6,430.6l-3.5-22.4l4.5-0.7L291,420l-2.3-14.4l5.2-0.8l3.5,22.4l-4.5,0.7l-14.4-12.6l2.3,14.5
			L275.6,430.6z"/>
		<path class="st1" d="M318.4,402l-7,2.3l1.3,4.2l6.5-2.1l1.4,4.2l-6.5,2.1l2.9,9l-5,1.6l-6.9-21.6l12-3.9L318.4,402z"/>
		<path class="st1" d="M327.2,393.6c2.7-1.1,4.7-1,6.1-0.5c1.2,0.5,2.8,1.6,3.8,3.9c0.6,1.3,1,3.1,0.2,4.9c-0.4,1-1.2,2.1-2.2,2.8
			l10.1,5.7l-5.9,2.5l-9.2-5.8l3.6,8.2l-4.8,2.1l-9-20.8L327.2,393.6z M328.8,404.1l1.1-0.5c0.9-0.4,2-1,2.5-2.1
			c0.2-0.5,0.3-1.3-0.1-2.4c-0.5-1.2-1.3-1.6-1.9-1.7c-1-0.3-2.3,0.2-2.9,0.5l-1.1,0.5L328.8,404.1z"/>
		<path class="st1" d="M358.9,397.9l-7.4,4.3l0.6,4.6l-4.7,2.7l-3.4-24.2l4.2-2.4l19.1,15.2l-4.7,2.7L358.9,397.9z M355.7,395.1
			l-6.2-5.2l1.4,8L355.7,395.1z"/>
		<path class="st1" d="M370.9,395.5l-13.8-18l3.6-2.8l18.7,4.1l-8.9-11.6l4.2-3.2l13.8,18l-3.6,2.8l-18.7-4.2l8.9,11.7L370.9,395.5z
			"/>
		<path class="st1" d="M404.6,365.5c-0.7,2.1-1.7,3.4-2.7,4.4c-3,2.9-6,3.9-8.7,3.9c-2.8,0-6-1.1-8.6-3.6c-2.5-2.5-3.5-5.7-3.5-8.6
			c0.1-2.8,1.2-5.8,3.7-8.3c1.1-1,2.5-2,4.8-2.9l4.2,4.3c-1.7-0.1-3.8,0.3-5.5,2c-1.4,1.3-2,2.8-2.1,4.5c0,1.8,0.6,3.7,2.1,5.2
			c1.6,1.7,3.5,2.2,4.9,2.2c0.7,0,2.8-0.1,4.8-2.1c1-1,2-2.5,2.1-5.3L404.6,365.5z"/>
		<path class="st1" d="M403,340.3l-4.9,5.8l3.4,2.8l4.6-5.5l3.4,2.8l-4.6,5.5l3.9,3.2l4.9-5.8l3.4,2.8l-8.2,9.8l-17.4-14.5l8.2-9.8
			L403,340.3z"/>
	</g>
</g>
</svg>
