<?xml version="1.0" encoding="utf-8"?>

<svg id="COMPONENTS_reassurance_Copy_3" data-name="COMPONENTS/reassurance Copy 3" xmlns="http://www.w3.org/2000/svg" width="56" height="50" viewBox="0 0 56 50">
  <g id="COMPONENTS_reassurance_picto" data-name="COMPONENTS/reassurance/picto">
    <circle id="Oval" cx="25" cy="25" r="25" transform="translate(4)" fill="#54c8be" opacity="0.2"/>
    <g id="Oval-2" data-name="Oval" transform="translate(35)" fill="none" stroke="#00bdad" stroke-miterlimit="10" stroke-width="1" opacity="0.202">
      <circle cx="10.5" cy="10.5" r="10.5" stroke="none"/>
      <circle cx="10.5" cy="10.5" r="10" fill="none"/>
    </g>
    <circle id="Oval-3" data-name="Oval" cx="7" cy="7" r="7" transform="translate(7 36)" fill="#54c8be" opacity="0.203"/>
    <circle id="Oval-4" data-name="Oval" cx="3.5" cy="3.5" r="3.5" transform="translate(0 22)" fill="#54c8be" opacity="0.197"/>
    <g id="ICONS_graphics_icon-param" data-name="ICONS/graphics/icon-param" transform="translate(17 12)">
      <g id="Rectangle" transform="translate(0 2)">
        <g id="Mask">
          <path id="Fill_6" data-name="Fill 6" d="M10.955,22A11.01,11.01,0,0,1,3.208,3.221,10.862,10.862,0,0,1,10.955,0a11,11,0,0,1,0,22Zm0-21.706a10.7,10.7,0,0,0,0,21.409,10.7,10.7,0,0,0,0-21.409Z" transform="translate(2.087)" fill="#fefefe"/>
          <path id="Fill_8" data-name="Fill 8" d="M10.955,22A11.01,11.01,0,0,1,3.208,3.221,10.862,10.862,0,0,1,10.955,0a11,11,0,0,1,0,22Zm0-21.706a10.7,10.7,0,0,0,0,21.409,10.7,10.7,0,0,0,0-21.409Z" transform="translate(2.087)" fill="#54baab"/>
          <path id="Fill_10" data-name="Fill 10" d="M7.666.116A9.9,9.9,0,0,0,3.8,1.547,11.979,11.979,0,0,0,0,5.532l.09.1A5.008,5.008,0,0,0,1.4,6.641a5.463,5.463,0,0,0,1.132.468A6.21,6.21,0,0,0,4.861,7.3,10.164,10.164,0,0,0,8.925,5.858l.324-.195c.277-.167.558-.361.873-.556.277-.174,3.919-1.718,4.976.422a1.64,1.64,0,0,1,.114.361,4.058,4.058,0,0,0,.246-2.961c-.353-.946-1.264-1.9-3.273-2.5L11.9.346A10.22,10.22,0,0,0,7.666.116" transform="translate(7.304 11.524)" fill="#54baab"/>
          <path id="Fill_14" data-name="Fill 14" d="M14.177.577A3.992,3.992,0,0,1,16.7,4.19l-.023-.284A4.463,4.463,0,0,0,13.895.628C11.1-.583,5.651,1.071,1.007,3.477L0,3.835C6.985-.051,11.316-.662,14.177.577" transform="translate(6.261 12.571)" fill="#fefefe"/>
          <path id="Fill_16" data-name="Fill 16" d="M4.406.845a4.3,4.3,0,0,1,1.24,1.488A6.142,6.142,0,0,1,6.261,5l-.054.028a2.515,2.515,0,0,1-.768.2,2.339,2.339,0,0,1-.568-.021,2.49,2.49,0,0,1-.992-.4A4.4,4.4,0,0,1,2.563,3.276l-.086-.161a4.073,4.073,0,0,0-.226-.444C2.232,2.64,1.057,1.036.13,1.819A.92.92,0,0,0,0,1.965,2.431,2.431,0,0,1,.59.522,2.087,2.087,0,0,1,2.5.039l.137.021A4.088,4.088,0,0,1,4.406.845" transform="translate(0 10.476)" fill="#fefefe"/>
          <path id="Fill_18" data-name="Fill 18" d="M4.406.845a4.3,4.3,0,0,1,1.24,1.488A6.142,6.142,0,0,1,6.261,5l-.054.028a2.515,2.515,0,0,1-.768.2,2.339,2.339,0,0,1-.568-.021,2.49,2.49,0,0,1-.992-.4A4.4,4.4,0,0,1,2.563,3.276l-.086-.161a4.073,4.073,0,0,0-.226-.444C2.232,2.64,1.057,1.036.13,1.819A.92.92,0,0,0,0,1.965,2.431,2.431,0,0,1,.59.522,2.087,2.087,0,0,1,2.5.039l.137.021A4.088,4.088,0,0,1,4.406.845" transform="translate(0 10.476)" fill="#54baab"/>
          <path id="Fill_22" data-name="Fill 22" d="M6.255,4.182l-.286-.345C4.893,2.008,3.249.053,1.864.053H1.845a2.249,2.249,0,0,0-1.72.89A2,2,0,0,1,1.751,0h.034C3.253,0,4.716,1.368,6.256,4.181Z" transform="translate(0 11.524)" fill="#fefefe"/>
          <path id="Fill_24" data-name="Fill 24" d="M0,14.666v0C.161,14.356,3.917,7.071,4.957,2.3,4.174,6.758,1.8,13.966,0,14.665ZM4.968,2.247h0A15.182,15.182,0,0,0,5.213,0,9.316,9.316,0,0,1,4.968,2.247Z" transform="translate(4.174 4.19)" fill="#fefefe"/>
          <path id="Fill_26" data-name="Fill 26" d="M0,14.666v0C.161,14.356,3.917,7.071,4.957,2.3,4.174,6.758,1.8,13.966,0,14.665ZM4.968,2.247h0A15.182,15.182,0,0,0,5.213,0,9.316,9.316,0,0,1,4.968,2.247Z" transform="translate(4.174 4.19)" fill="#54baab"/>
          <path id="Fill_34" data-name="Fill 34" d="M1.549,5.238H0V0H1.219A1.785,1.785,0,0,1,2.09.177a1.236,1.236,0,0,1,.493.5,1.512,1.512,0,0,1,.172.734,1.2,1.2,0,0,1-.509,1.038,1.321,1.321,0,0,1,.582.418,1.4,1.4,0,0,1,.3.9,1.457,1.457,0,0,1-.184.741,1.41,1.41,0,0,1-.535.53A1.681,1.681,0,0,1,1.549,5.238ZM.782,3V4.4h.576a1.524,1.524,0,0,0,.611-.086.577.577,0,0,0,.257-.252.7.7,0,0,0,.1-.366.715.715,0,0,0-.1-.367.668.668,0,0,0-.293-.252A1.645,1.645,0,0,0,1.326,3H.782Zm0-2.164V2.16h.352a.845.845,0,0,0,.631-.193.693.693,0,0,0,.181-.5c-.005-.441-.205-.618-.713-.634Z" transform="translate(7.304 3.143)" fill="#54baab"/>
          <path id="Fill_36" data-name="Fill 36" d="M0,.1V5.238H1.043V0H0Z" transform="translate(11.478 3.143)" fill="#54baab"/>
          <path id="Fill_38" data-name="Fill 38" d="M2.566,5.238h0A2.478,2.478,0,0,1,.732,4.5,2.548,2.548,0,0,1,0,2.642,2.6,2.6,0,0,1,.739.748,2.486,2.486,0,0,1,2.581,0h.031A2.559,2.559,0,0,1,5.217,2.628,2.526,2.526,0,0,1,4.46,4.5,2.61,2.61,0,0,1,2.566,5.238ZM2.623.853a1.687,1.687,0,0,0-1.257.5A1.742,1.742,0,0,0,.874,2.642,1.7,1.7,0,0,0,1.366,3.9,1.648,1.648,0,0,0,2.6,4.4,1.654,1.654,0,0,0,3.852,3.89a1.76,1.76,0,0,0,.5-1.276,1.717,1.717,0,0,0-.5-1.251A1.659,1.659,0,0,0,2.623.853Z" transform="translate(13.565 3.143)" fill="#54baab"/>
        </g>
        <rect id="Rectangle-2" data-name="Rectangle" width="25" height="25" transform="translate(0 -2)" fill="none"/>
      </g>
    </g>
  </g>
</svg>
