<?xml version="1.0" encoding="UTF-8"?>
<svg width="100px" height="98px" viewBox="0 0 100 98" version="1.1" xmlns="http://www.w3.org/2000/svg" xmlns:xlink="http://www.w3.org/1999/xlink">
    <!-- Generator: Sketch 64 (93537) - https://sketch.com -->
    <title>Group 3</title>
    <desc>Created with Sketch.</desc>
    <defs>
        <path d="M31.9252005,32.4935361 C33.099569,34.6288973 34.0390638,36.0524715 33.8041901,38.6623574 C33.5693164,41.034981 33.5693164,43.6448669 32.6298216,45.7802281 C31.9252005,47.4410646 33.099569,47.4410646 33.8041901,47.9155894 C36.1529271,50.2882129 39.2062852,49.3391635 42.0247696,50.0509506 C44.1386328,50.5254753 46.9571172,52.8980989 47.6617383,47.678327 C47.6617383,46.7292776 49.0709805,46.4920152 50.0104753,46.4920152 C51.4197175,46.4920152 53.0638334,46.7292776 54.4730756,47.4410646 C56.5869389,48.3901141 59.8751706,46.4920152 60.8146654,44.356654 C61.0495391,43.4076046 60.8146654,43.4076046 60.1100443,42.9330798 C58.4659284,41.9840304 58.4659284,40.3231939 58.9356758,38.4250951 C59.4054232,36.7642586 59.6402969,34.1543726 57.7613073,33.4425856 C56.1171915,32.7307985 57.0566862,32.0190114 57.5264336,31.5444867 C59.4054232,29.4091255 60.344918,27.0365019 61.5192865,24.1893536 C62.693655,21.3422053 61.5192865,21.3422053 60.1100443,20.8676806 C54.942823,19.2068441 50.245349,16.3596958 46.0176224,12.8007605 C44.3735065,11.3771863 42.9642644,11.851711 42.9642644,14.2243346 C42.7293907,16.5969582 42.0247696,17.3087452 40.14578,17.3087452 C39.4411589,17.3087452 38.7365378,17.5460076 38.5016641,18.495057 C36.8575482,21.5794677 35.448306,20.3931559 34.2739375,19.2068441 C33.5693164,18.7323194 33.099569,17.78327 32.1600742,18.495057 C31.2205794,19.2068441 31.6903268,19.9186312 32.1600742,20.8676806 C33.3344427,23.2403042 32.6298216,23.7148289 30.2810846,23.4775665 C29.8113372,23.4775665 29.5764636,23.2403042 29.1067162,23.0030418 C28.4020951,22.7657795 27.9323477,22.2912548 27.2277266,22.5285171 C26.5231055,22.7657795 25.8184844,23.0030418 25.1138633,23.0030418 C24.1743685,23.2403042 23,22.7657795 23,24.6638783 C23,26.3247148 23.4697474,27.5110266 25.1138633,27.9855513 C27.697474,28.6973384 30.0462109,29.1718631 31.9252005,32.4935361 Z" id="path-1"></path>
    </defs>
    <g id="Symbols" stroke="none" stroke-width="1" fill="none" fill-rule="evenodd">
        <g id="Group-3" transform="translate(-501.000000, -23.000000)">
            <g transform="translate(503.590000, 23.400000)">
                <g id="Group" stroke-width="1" fill-rule="evenodd" transform="translate(-2.000000, 0.000000)">
                    <circle id="Oval" fill="#54C8BE" opacity="0.200055804" cx="47" cy="45" r="45"></circle>
                    <circle id="Oval" stroke="#00BDAD" opacity="0.202055432" cx="12.5" cy="17.5" r="12"></circle>
                    <circle id="Oval" fill="#54C8BE" opacity="0.202822731" cx="80" cy="78" r="19"></circle>
                </g>
                <path d="M24.9293345,65.0473863 L24.9289949,60.8115039 C24.9278626,60.6474846 24.9238998,60.4187208 24.9171064,60.1252125 C24.9089544,59.7730025 24.9048784,59.5108372 24.9048784,59.3387165 L24.9048784,59.1235657 L26.9689793,65.0473863 L27.9325525,65.0473863 L29.9819797,59.1235657 C29.9819797,59.5028687 29.9787188,59.858266 29.9721972,60.1897578 C29.9656755,60.5212495 29.9624147,60.7587123 29.9624147,60.9021462 L29.9624147,60.9021462 L29.9624147,65.0473863 L30.886858,65.0473863 L30.886858,58.0239057 L29.5075299,58.0239057 L27.4581027,63.9620697 L25.3940018,58.0239057 L24,58.0239057 L24,65.0473863 L24.9293345,65.0473863 Z M34.2862659,65.219507 C34.690608,65.219507 35.0607114,65.1350404 35.3965761,64.9661071 C35.7324409,64.7971738 35.9900459,64.5979601 36.1693912,64.3684658 C36.1987386,64.5724607 36.2492813,64.730238 36.3210194,64.8417977 C36.457974,65.0521674 36.6780795,65.1573523 36.9813361,65.1573523 C37.1052474,65.1573523 37.203072,65.1525712 37.2748101,65.1430089 C37.3465482,65.1334467 37.4508946,65.109541 37.5878491,65.071292 L37.5878491,65.071292 L37.5878491,64.4354016 C37.5324152,64.4449639 37.480242,64.4521356 37.4313296,64.4569167 C37.3824173,64.4616978 37.3383962,64.4640884 37.2992663,64.4640884 C37.1786159,64.4640884 37.0995409,64.4369953 37.0620414,64.3828092 C37.024542,64.328623 37.0057923,64.2569061 37.0057923,64.1676583 L37.0057923,64.1676583 L37.0057923,61.2177008 C37.0057923,60.7332129 36.8150341,60.3762218 36.4335178,60.1467276 C36.0487407,59.9172333 35.5482044,59.8024862 34.9319089,59.8024862 C34.4003947,59.8024862 33.9332818,59.9259987 33.5305702,60.1730238 C33.1278586,60.4200489 32.9183507,60.859116 32.9020466,61.4902252 L32.9020466,61.4902252 L33.723774,61.4902252 C33.7563822,61.2256694 33.8264899,61.0264556 33.9340971,60.8925839 C34.1264856,60.65034 34.4525679,60.529218 34.9123439,60.529218 C35.3101643,60.529218 35.6158665,60.595357 35.8294504,60.7276349 C36.0430343,60.8599129 36.1498262,61.0726732 36.1498262,61.3659159 C36.1498262,61.5093498 36.1302613,61.6193158 36.0911314,61.6958139 C36.0226541,61.8360603 35.88733,61.9189333 35.685159,61.9444326 L35.685159,61.9444326 L34.2813747,62.1165533 C33.7889904,62.1771143 33.39117,62.338079 33.0879135,62.5994475 C32.784657,62.860816 32.6330287,63.228963 32.6330287,63.7038887 C32.6330287,64.1373778 32.7871026,64.4983532 33.0952504,64.7868147 C33.4033981,65.0752762 33.8004033,65.219507 34.2862659,65.219507 Z M34.4916978,64.4879941 C34.2373536,64.4879941 34.017248,64.4162771 33.8313811,64.2728432 C33.6455142,64.1294093 33.5525808,63.9333829 33.5525808,63.6847641 C33.5525808,63.3564598 33.6879049,63.1174033 33.9585532,62.9675946 C34.1183335,62.8783468 34.358004,62.8130047 34.6775647,62.7715682 L34.6775647,62.7715682 L35.2107092,62.7046324 C35.3737504,62.6855079 35.5400523,62.6536337 35.7096151,62.6090098 C35.8791779,62.5643859 36.0177629,62.508606 36.1253701,62.4416702 L36.1253701,62.4416702 L36.1253701,63.1349341 C36.1253701,63.6640459 35.8808083,64.0449426 35.3916849,64.2776243 C35.1014717,64.4178708 34.801476,64.4879941 34.4916978,64.4879941 Z M40.860085,65.2290693 C41.2220363,65.2290693 41.5432274,65.158946 41.8236581,65.0186995 C42.1040889,64.878453 42.3470202,64.6505525 42.5524521,64.3349979 L42.5524521,64.3349979 L42.5524521,65.0473863 L43.344832,65.0473863 L43.344832,58 L42.4986485,58 L42.4986485,60.5865916 C42.2997383,60.3475351 42.1220234,60.1801955 41.9655039,60.0845729 C41.6948556,59.918827 41.3589909,59.8359541 40.9579096,59.8359541 C40.234007,59.8359541 39.6772214,60.1092754 39.2875531,60.655918 C38.8978848,61.2025606 38.7030506,61.84881 38.7030506,62.5946664 C38.7030506,63.3915215 38.9166345,64.0298024 39.3438023,64.5095091 C39.7709701,64.9892159 40.2763976,65.2290693 40.860085,65.2290693 Z M41.1339941,64.4784318 C40.6090016,64.4784318 40.2274853,64.2935614 39.9894452,63.9238207 C39.7514052,63.5540799 39.6323851,63.0950914 39.6323851,62.5468551 C39.6323851,61.9029962 39.7701549,61.4153209 40.0456944,61.0838292 C40.321234,60.7523374 40.6807397,60.5865916 41.1242116,60.5865916 C41.522032,60.5865916 41.8562664,60.7419783 42.1269147,61.0527518 C42.397563,61.3635253 42.5328871,61.8424352 42.5328871,62.4894815 C42.5328871,63.130153 42.401639,63.6218126 42.1391427,63.9644603 C41.8766465,64.3071079 41.5415969,64.4784318 41.1339941,64.4784318 Z M47.3165144,65.2290693 C47.5839018,65.2290693 47.8235723,65.2035699 48.0355258,65.1525712 C48.4300854,65.0633234 48.7610589,64.8912027 49.0284464,64.6362091 C49.1882267,64.4895878 49.3325181,64.3007331 49.4613206,64.0696451 C49.5901231,63.8385572 49.6659373,63.6289843 49.688763,63.4409265 L49.688763,63.4409265 L48.8230145,63.4409265 C48.7577981,63.6672333 48.6469301,63.8664471 48.4904106,64.0385678 C48.2165015,64.3349979 47.8496589,64.4832129 47.3898829,64.4832129 C46.8974986,64.4832129 46.5339168,64.3262325 46.2991376,64.0122716 C46.0643583,63.6983107 45.9388167,63.2815555 45.9225125,62.7620059 L45.9225125,62.7620059 L49.7621315,62.7620059 C49.7621315,62.2456439 49.736045,61.8695283 49.6838718,61.6336592 C49.625177,61.2894178 49.5077874,60.9882065 49.3317029,60.7300255 C49.1490968,60.4590948 48.8833398,60.2383659 48.5344317,60.0678389 C48.1855237,59.8973119 47.8252027,59.8120484 47.4534689,59.8120484 C46.7165229,59.8120484 46.1197923,60.0686358 45.6632771,60.5818105 C45.2067619,61.0949851 44.9785043,61.7627497 44.9785043,62.5851041 C44.9785043,63.4202082 45.2051315,64.0696451 45.6583859,64.5334148 C46.1116403,64.9971844 46.6643498,65.2290693 47.3165144,65.2290693 Z M48.8572532,62.0783043 L45.9469687,62.0783043 C45.9632728,61.6384403 46.1083795,61.2758712 46.3822886,60.9905971 C46.6561977,60.705323 46.9953233,60.5626859 47.3996653,60.5626859 C47.9637877,60.5626859 48.3664993,60.7698683 48.6078002,61.1842329 C48.7382331,61.4073523 48.8213841,61.7053761 48.8572532,62.0783043 L48.8572532,62.0783043 Z M55.7734586,58.9992563 L55.7734586,58.0239057 L54.8783627,58.0239057 L54.8783627,58.9992563 L55.7734586,58.9992563 Z M55.7734586,65.0473863 L55.7734586,59.9507012 L54.8783627,59.9507012 L54.8783627,65.0473863 L55.7734586,65.0473863 Z M58.6103746,65.0473863 L58.6103746,62.3651721 C58.6103746,62.030493 58.6323851,61.7731088 58.6764062,61.5930195 C58.7204273,61.4129303 58.8158064,61.238419 58.9625434,61.0694858 C59.1451495,60.859116 59.357103,60.7188695 59.5984039,60.6487463 C59.7320977,60.6073098 59.9032909,60.5865916 60.1119835,60.5865916 C60.5228472,60.5865916 60.8065388,60.7459626 60.9630583,61.0647046 C61.0576222,61.2559499 61.1049041,61.5077561 61.1049041,61.8201232 L61.1049041,61.8201232 L61.1049041,65.0473863 L62,65.0473863 L62,61.7627497 C62,61.2463876 61.9282619,60.8495538 61.7847857,60.5722482 C61.5239199,60.0654484 61.0217531,59.8120484 60.2782855,59.8120484 C59.9391599,59.8120484 59.6310121,59.8773906 59.3538422,60.0080748 C59.0766722,60.138759 58.814176,60.3539099 58.5663535,60.6535274 L58.5663535,60.6535274 L58.5663535,59.9267956 L57.7299524,59.9267956 L57.7299524,65.0473863 L58.6103746,65.0473863 Z M27.6341872,75.818317 L27.6341872,72.6245219 L31.1607672,72.6245219 L31.1607672,71.7878241 L27.6341872,71.7878241 L27.6341872,69.6554399 L31.6449994,69.6554399 L31.6449994,68.7948364 L26.6608315,68.7948364 L26.6608315,75.818317 L27.6341872,75.818317 Z M34.100399,75.818317 L34.100399,72.8731407 C34.100399,72.5097748 34.2194191,72.1886422 34.4574591,71.9097429 C34.6954992,71.6308436 35.0362552,71.491394 35.4797271,71.491394 C35.5319003,71.491394 35.5799974,71.4929877 35.6240185,71.4961751 C35.6680396,71.4993625 35.7161368,71.5057374 35.7683099,71.5152996 L35.7683099,71.5152996 L35.7683099,70.6068848 C35.6737461,70.5973226 35.6068992,70.5909477 35.5677693,70.5877603 C35.5286395,70.5845729 35.5009225,70.5829792 35.4846184,70.5829792 C35.1357103,70.5829792 34.8275625,70.7064917 34.5601751,70.9535168 C34.2927876,71.2005419 34.1248552,71.4101147 34.0563779,71.5822354 L34.0563779,71.5822354 L34.0563779,70.6977263 L33.2199768,70.6977263 L33.2199768,75.818317 L34.100399,75.818317 Z M38.566096,75.9904377 C38.9704381,75.9904377 39.3405415,75.9059711 39.6764062,75.7370378 C40.012271,75.5681045 40.269876,75.3688908 40.4492213,75.1393965 C40.4785687,75.3433914 40.5291114,75.5011687 40.6008495,75.6127284 C40.7378041,75.8230982 40.9579096,75.928283 41.2611662,75.928283 C41.3850774,75.928283 41.4829021,75.9235019 41.5546402,75.9139397 C41.6263783,75.9043774 41.7307247,75.8804717 41.8676792,75.8422227 L41.8676792,75.8422227 L41.8676792,75.2063323 C41.8122452,75.2158946 41.7600721,75.2230663 41.7111597,75.2278474 C41.6622474,75.2326286 41.6182263,75.2350191 41.5790964,75.2350191 C41.458446,75.2350191 41.379371,75.2079261 41.3418715,75.1537399 C41.3043721,75.0995538 41.2856223,75.0278368 41.2856223,74.938589 L41.2856223,74.938589 L41.2856223,71.9886315 C41.2856223,71.5041436 41.0948642,71.1471526 40.7133479,70.9176583 C40.3285708,70.688164 39.8280345,70.5734169 39.211739,70.5734169 C38.6802248,70.5734169 38.2131119,70.6969295 37.8104003,70.9439545 C37.4076887,71.1909796 37.1981808,71.6300467 37.1818767,72.261156 L37.1818767,72.261156 L38.0036041,72.261156 C38.0362123,71.9966001 38.10632,71.7973863 38.2139271,71.6635147 C38.4063157,71.4212707 38.732398,71.3001487 39.192174,71.3001487 C39.5899944,71.3001487 39.8956966,71.3662877 40.1092805,71.4985657 C40.3228644,71.6308436 40.4296563,71.8436039 40.4296563,72.1368466 C40.4296563,72.2802805 40.4100914,72.3902465 40.3709615,72.4667446 C40.3024842,72.6069911 40.1671601,72.689864 39.9649891,72.7153634 L39.9649891,72.7153634 L38.5612048,72.8874841 C38.0688205,72.948045 37.6710001,73.1090098 37.3677436,73.3703782 C37.0644871,73.6317467 36.9128588,73.9998938 36.9128588,74.4748194 C36.9128588,74.9083085 37.0669327,75.2692839 37.3750804,75.5577454 C37.6832282,75.846207 38.0802334,75.9904377 38.566096,75.9904377 Z M38.7715279,75.2589248 C38.5171837,75.2589248 38.2970781,75.1872078 38.1112112,75.0437739 C37.9253443,74.90034 37.8324109,74.7043136 37.8324109,74.4556949 C37.8324109,74.1273906 37.967735,73.888334 38.2383833,73.7385253 C38.3981636,73.6492775 38.6378341,73.5839354 38.9573948,73.5424989 L38.9573948,73.5424989 L39.4905393,73.4755631 C39.6535805,73.4564386 39.8198824,73.4245644 39.9894452,73.3799405 C40.159008,73.3353166 40.297593,73.2795368 40.4052002,73.2126009 L40.4052002,73.2126009 L40.4052002,73.9058649 C40.4052002,74.4349766 40.1606384,74.8158734 39.671515,75.048555 C39.3813018,75.1888015 39.081306,75.2589248 38.7715279,75.2589248 Z M44.2350367,75.818317 L44.2350367,73.1361028 C44.2350367,72.8014237 44.2570472,72.5440395 44.3010683,72.3639503 C44.3450895,72.183861 44.4404685,72.0093498 44.5872056,71.8404165 C44.7698116,71.6300467 44.9817651,71.4898003 45.223066,71.419677 C45.3567598,71.3782405 45.527953,71.3575223 45.7366456,71.3575223 C46.1475093,71.3575223 46.4312009,71.5168933 46.5877204,71.8356354 C46.6822843,72.0268806 46.7295662,72.2786868 46.7295662,72.591054 L46.7295662,72.591054 L46.7295662,75.818317 L47.6246621,75.818317 L47.6246621,72.5336804 C47.6246621,72.0173183 47.552924,71.6204845 47.4094478,71.3431789 C47.148582,70.8363791 46.6464152,70.5829792 45.9029476,70.5829792 C45.563822,70.5829792 45.2556743,70.6483213 44.9785043,70.7790055 C44.7013344,70.9096898 44.4388381,71.1248406 44.1910156,71.4244581 L44.1910156,71.4244581 L44.1910156,70.6977263 L43.3546145,70.6977263 L43.3546145,75.818317 L44.2350367,75.818317 Z M51.4447162,75.9665321 C52.0544901,75.9665321 52.5550264,75.8095516 52.9463251,75.4955907 C53.3376239,75.1816298 53.5821856,74.6851891 53.6800103,74.0062686 L53.6800103,74.0062686 L52.8240443,74.0062686 C52.7425237,74.3855716 52.5949715,74.6843923 52.3813876,74.9027306 C52.1678037,75.1210688 51.8784056,75.230238 51.5131935,75.230238 C51.0371133,75.230238 50.6882053,75.0549299 50.4664693,74.7043136 C50.2447333,74.3536974 50.1338654,73.921802 50.1338654,73.4086273 C50.1338654,72.89864 50.2121251,72.469932 50.3686446,72.1225032 C50.6099455,71.5870166 51.0110267,71.3192733 51.5718883,71.3192733 C51.982752,71.3192733 52.2811173,71.4236613 52.4669842,71.6324373 C52.6528511,71.8412133 52.7718711,72.1033787 52.8240443,72.4189333 L52.8240443,72.4189333 L53.6800103,72.4189333 C53.6050114,71.7336379 53.3824602,71.2507437 53.0123568,70.9702507 C52.6422534,70.6897578 52.1620972,70.5495113 51.5718883,70.5495113 C50.8805938,70.5495113 50.3115802,70.7997238 49.8648475,71.3001487 C49.4181147,71.8005737 49.1947484,72.5002125 49.1947484,73.399065 C49.1947484,74.1321717 49.3985498,74.7433595 49.8061527,75.2326286 C50.2137555,75.7218976 50.7599434,75.9665321 51.4447162,75.9665321 Z M57.2310465,76 C57.4984339,76 57.7381044,75.9745006 57.9500579,75.9235019 C58.3446175,75.8342541 58.675591,75.6621334 58.9429785,75.4071398 C59.1027588,75.2605185 59.2470502,75.0716638 59.3758527,74.8405759 C59.5046553,74.6094879 59.5804694,74.399915 59.6032951,74.2118572 L59.6032951,74.2118572 L58.7375467,74.2118572 C58.6723302,74.438164 58.5614622,74.6373778 58.4049427,74.8094985 C58.1310336,75.1059286 57.764191,75.2541436 57.304415,75.2541436 C56.8120307,75.2541436 56.448449,75.0971632 56.2136697,74.7832023 C55.9788905,74.4692414 55.8533488,74.0524862 55.8370447,73.5329367 L55.8370447,73.5329367 L59.6766637,73.5329367 C59.6766637,73.0165746 59.6505771,72.640459 59.5984039,72.4045899 C59.5397091,72.0603485 59.4223195,71.7591373 59.246235,71.5009562 C59.063629,71.2300255 58.7978719,71.0092966 58.4489638,70.8387697 C58.1000558,70.6682427 57.7397348,70.5829792 57.368001,70.5829792 C56.631055,70.5829792 56.0343245,70.8395665 55.5778092,71.3527412 C55.121294,71.8659159 54.8930364,72.5336804 54.8930364,73.3560348 C54.8930364,74.191139 55.1196636,74.8405759 55.572918,75.3043455 C56.0261724,75.7681152 56.5788819,76 57.2310465,76 Z M58.7717853,72.849235 L55.8615008,72.849235 C55.877805,72.409371 56.0229116,72.046802 56.2968207,71.7615278 C56.5707298,71.4762537 56.9098554,71.3336167 57.3141975,71.3336167 C57.8783198,71.3336167 58.2810314,71.540799 58.5223323,71.9551636 C58.6527653,72.178283 58.7359162,72.4763068 58.7717853,72.849235 L58.7717853,72.849235 Z" id="MadeinFrance" fill="#00BDAD" fill-rule="nonzero"></path>
                <mask id="mask-2" fill="white">
                    <use xlink:href="#path-1"></use>
                </mask>
                <use id="Mask" fill="#00BDAD" fill-rule="nonzero" xlink:href="#path-1"></use>
            </g>
        </g>
    </g>
</svg>