<svg xmlns="http://www.w3.org/2000/svg" width="47.868" height="47.696" viewBox="0 0 47.868 47.696">
  <g id="icon-madeinfrance" transform="translate(0 -1)">
    <g id="Calque_1" transform="translate(0 1)">
      <g id="Group" transform="translate(12.038 0.617)">
        <path id="Path" d="M15.3,0H11.277L0,43.569H4.027Z" transform="translate(0.044 0.185)" fill="#0069b3"/>
        <path id="Path-2" data-name="Path" d="M15.649,0H11.622L0,44.371H4.027Z" transform="translate(3.611 0.988)" fill="#fff"/>
        <path id="Path-3" data-name="Path" d="M15.419,0H11.507L0,44.027H3.912Z" transform="translate(7.409 2.249)" fill="#e20613"/>
      </g>
      <g id="Group-2" data-name="Group" transform="translate(5.551 6.057)">
        <path id="Path-4" data-name="Path" d="M0,8.612a17.361,17.361,0,0,0,4.488-.573s4.027,1.605,4.027-.115a4.447,4.447,0,0,0-1.151-3.44A6.977,6.977,0,0,1,9.781,4.14s1.266,2.637,4.6,1.032A5.445,5.445,0,0,0,17.721.586,6.611,6.611,0,0,1,20.137.013S21.4,5.172,34.751,8.5c0,0-1.841,4.128-1.726,6.421,0,0-3.567,1.72-4.027,5.389a3.5,3.5,0,0,1,2.186-1.261s-1.036,7.223,2.532,9.4c0,0,.805,2.866-3.337,4.128C26.7,33.721,21.863,27.3,20.022,34.868a21.378,21.378,0,0,1-8.055-1.491,23.743,23.743,0,0,0-6.674-2.064,31.272,31.272,0,0,0,2.877-9.4c1.036-6.306-2.3-9.4-7.479-9.516.23,0,.575-1.72-.69-3.784" transform="translate(0.087 0.121)" fill="#002848"/>
      </g>
      <path id="Shape" d="M23.935,47.7A23.848,23.848,0,1,1,40.864,6.98,23.848,23.848,0,0,1,23.935,47.7Zm0-45.633A21.785,21.785,0,1,0,45.8,23.848,21.849,21.849,0,0,0,23.935,2.064Z" fill="#002848"/>
    </g>
  </g>
</svg>
