<?xml version="1.0" encoding="utf-8"?>
<!-- Generator: Adobe Illustrator 21.0.0, SVG Export Plug-In . SVG Version: 6.00 Build 0)  -->
<svg version="1.1" id="Calque_1" xmlns="http://www.w3.org/2000/svg" xmlns:xlink="http://www.w3.org/1999/xlink" x="0px" y="0px"
	 viewBox="0 0 1000 1000" style="enable-background:new 0 0 1000 1000;" xml:space="preserve">
<style type="text/css">
	.st0{fill:#FFFFFF;}
</style>
<path class="st0" d="M743,20H616c-140.1,0-232,91.9-232,236.4v109.5H257c-8.8,0-17.5,8.8-17.5,21.9v157.6c0,8.8,8.8,17.5,17.5,17.5
	h127v398.4c0,8.8,8.8,17.5,17.5,17.5h166.4c13.1,4.4,21.9-4.4,21.9-13.1V567.2h148.9c8.8,0,17.5-8.8,17.5-17.5V392.1
	c0-4.4,0-8.8-4.4-13.1c-4.4-4.4-8.8-4.4-13.1-4.4H589.8V273.9c0-43.8,8.8-65.7,70.1-65.7H743c8.8,0,17.5-8.8,17.5-17.5V41.9
	C760.5,28.7,751.7,20,743,20z"/>
</svg>
