<?xml version="1.0" encoding="utf-8"?>
<!-- Generator: Adobe Illustrator 21.0.0, SVG Export Plug-In . SVG Version: 6.00 Build 0)  -->
<svg version="1.1" id="Calque_1" xmlns="http://www.w3.org/2000/svg" xmlns:xlink="http://www.w3.org/1999/xlink" x="0px" y="0px"
	 viewBox="0 0 1000 1000" style="enable-background:new 0 0 1000 1000;" xml:space="preserve">
<style type="text/css">
	.st0{fill:#FFFFFF;}
</style>
<g id="XMLID_13_">
	<path id="XMLID_17_" class="st0" d="M694,20H306C148.3,20,20,148.3,20,306v388c0,157.7,128.3,286,286,286h388
		c157.7,0,286-128.3,286-286V306C980,148.3,851.7,20,694,20z M883.4,694c0,104.6-84.8,189.4-189.4,189.4H306
		c-104.6,0-189.4-84.8-189.4-189.4V306c0-104.6,84.8-189.4,189.4-189.4h388c104.6,0,189.4,84.8,189.4,189.4V694L883.4,694z"/>
	<path id="XMLID_81_" class="st0" d="M500,251.7c-136.9,0-248.3,111.4-248.3,248.3S363.1,748.3,500,748.3S748.3,636.9,748.3,500
		S636.9,251.7,500,251.7z M500,651.7c-83.8,0-151.7-67.9-151.7-151.7S416.2,348.3,500,348.3S651.7,416.2,651.7,500
		S583.8,651.7,500,651.7z"/>
	<circle id="XMLID_83_" class="st0" cx="748.8" cy="253.6" r="59.5"/>
</g>
</svg>
