<?xml version="1.0" encoding="utf-8"?>
<!-- Generator: Adobe Illustrator 21.0.0, SVG Export Plug-In . SVG Version: 6.00 Build 0)  -->
<svg version="1.1" id="Calque_1" xmlns="http://www.w3.org/2000/svg" xmlns:xlink="http://www.w3.org/1999/xlink" x="0px" y="0px"
	 viewBox="0 0 1000 1000" style="enable-background:new 0 0 1000 1000;" xml:space="preserve">
<style type="text/css">
	.st0{fill:#FFFFFF;}
</style>
<path class="st0" d="M980,603.8v354.9H774.2V627.5c0-83.2-29.8-140-104.2-140c-56.9,0-90.7,38.3-105.6,75.3
	c-5.4,13.2-6.8,31.6-6.8,50.2v345.7H351.8c0,0,2.8-560.9,0-619h205.8v87.7c-0.4,0.7-1,1.4-1.4,2h1.4v-2
	c27.3-42.1,76.2-102.3,185.5-102.3C878.5,325.2,980,413.6,980,603.8z M136.5,41.3C66.1,41.3,20,87.5,20,148.3
	c0,59.4,44.7,107,113.7,107h1.4c71.8,0,116.4-47.6,116.4-107C250.2,87.5,206.9,41.3,136.5,41.3z M32.2,958.7H238v-619H32.2V958.7z"
	/>
</svg>
