<?xml version="1.0" encoding="utf-8"?>
<!-- Generator: Adobe Illustrator 21.0.0, SVG Export Plug-In . SVG Version: 6.00 Build 0)  -->
<svg version="1.1" id="Calque_1" xmlns="http://www.w3.org/2000/svg" xmlns:xlink="http://www.w3.org/1999/xlink" x="0px" y="0px"
	 viewBox="0 0 301.5 218.8" style="enable-background:new 0 0 301.5 218.8;" xml:space="preserve">
<style type="text/css">
	.st0{fill:#FFFFFF;}
</style>
<path class="st0" d="M295.3,85.2c-0.1-5.8-0.6-13.2-1.4-22.1s-2-16.8-3.5-23.8c-1.7-7.9-5.5-14.5-11.2-19.9
	c-5.8-5.4-12.5-8.5-20.1-9.4c-23.9-2.7-60-4-108.4-4S66.2,7.3,42.3,10c-7.6,0.9-14.3,4-20,9.4s-9.4,12-11.1,19.9
	c-1.6,7-2.8,14.9-3.6,23.8C6.7,72,6.3,79.3,6.2,85.2C6.1,91,6,99.1,6,109.4s0.1,18.4,0.2,24.2s0.6,13.2,1.4,22.1
	c0.8,8.9,2,16.8,3.5,23.8c1.7,7.9,5.5,14.5,11.2,19.9c5.8,5.4,12.5,8.5,20.1,9.4c23.9,2.7,60,4,108.4,4s84.5-1.3,108.4-4
	c7.6-0.9,14.3-4,20-9.4s9.4-12,11.1-19.9c1.6-7,2.8-14.9,3.6-23.8c0.8-8.9,1.3-16.2,1.4-22.1c0.1-5.8,0.2-13.9,0.2-24.2
	C295.5,99.1,295.4,91,295.3,85.2z M207.9,118.1l-82.7,51.7c-1.5,1.1-3.3,1.6-5.5,1.6c-1.6,0-3.3-0.4-5-1.3c-3.6-1.9-5.3-5-5.3-9
	V57.7c0-4.1,1.8-7.1,5.3-9c3.7-1.9,7.2-1.8,10.5,0.3l82.7,51.7c3.2,1.8,4.8,4.7,4.8,8.7C212.8,113.4,211.2,116.3,207.9,118.1z"/>
</svg>
